# Blender 4.2.2 LTS
# www.blender.org
mtllib turret.mtl
o Cylinder.003
v -1.101179 2.263951 -1.983023
v -1.101179 2.506039 -1.971759
v -1.091362 2.268584 -2.082586
v -1.091362 2.510672 -2.071322
v -1.062289 2.273039 -2.178323
v -1.062289 2.515126 -2.167059
v -1.015077 2.277144 -2.266555
v -1.015077 2.519232 -2.255291
v -0.951541 2.280742 -2.343891
v -0.951541 2.522830 -2.332626
v -0.874121 2.283695 -2.407358
v -0.874121 2.525783 -2.396094
v -0.785794 2.285890 -2.454519
v -0.785794 2.527978 -2.443255
v -0.689954 2.287241 -2.483561
v -0.689954 2.529329 -2.472296
v -0.590283 2.287698 -2.493367
v -0.590283 2.529785 -2.482103
v -0.490612 2.287241 -2.483561
v -0.490612 2.529329 -2.472296
v -0.394771 2.285890 -2.454519
v -0.394771 2.527978 -2.443255
v -0.306444 2.283695 -2.407358
v -0.306444 2.525783 -2.396094
v -0.229025 2.280742 -2.343890
v -0.229025 2.522830 -2.332626
v -0.165488 2.277144 -2.266555
v -0.165488 2.519232 -2.255291
v -0.118276 2.273039 -2.178323
v -0.118276 2.515126 -2.167059
v -0.089203 2.268584 -2.082586
v -0.089203 2.510672 -2.071322
v -0.079387 2.263951 -1.983023
v -0.079387 2.506039 -1.971758
v -0.089203 2.259319 -1.883459
v -0.089203 2.501407 -1.872195
v -0.118276 2.254864 -1.787722
v -0.118276 2.496952 -1.776458
v -0.165488 2.250759 -1.699491
v -0.165488 2.492847 -1.688226
v -0.229025 2.247160 -1.622155
v -0.229025 2.489248 -1.610891
v -0.306444 2.244207 -1.558687
v -0.306444 2.486295 -1.547423
v -0.394772 2.242013 -1.511526
v -0.394772 2.484101 -1.500262
v -0.490612 2.240662 -1.482485
v -0.490612 2.482749 -1.471221
v -0.590283 2.240205 -1.472679
v -0.590283 2.482293 -1.461415
v -0.689954 2.240662 -1.482485
v -0.689954 2.482749 -1.471221
v -0.785795 2.242013 -1.511527
v -0.785795 2.484101 -1.500263
v -0.874122 2.244207 -1.558688
v -0.874122 2.486295 -1.547424
v -0.951541 2.247160 -1.622156
v -0.951541 2.489248 -1.610892
v -1.015078 2.250759 -1.699492
v -1.015078 2.492847 -1.688227
v -1.062289 2.254864 -1.787723
v -1.062289 2.496952 -1.776459
v -1.091362 2.259319 -1.883461
v -1.091362 2.501407 -1.872196
v -0.981052 2.539086 -2.048034
v -0.988708 2.535474 -1.970389
v -0.958380 2.542560 -2.122695
v -0.921561 2.545762 -2.191503
v -0.872012 2.548568 -2.251814
v -0.811636 2.550871 -2.301310
v -0.742753 2.552583 -2.338088
v -0.668012 2.553636 -2.360736
v -0.590283 2.553992 -2.368384
v -0.512554 2.553636 -2.360736
v -0.437812 2.552583 -2.338088
v -0.368929 2.550871 -2.301310
v -0.308553 2.548568 -2.251814
v -0.259004 2.545762 -2.191503
v -0.222186 2.542560 -2.122695
v -0.199513 2.539086 -2.048034
v -0.191858 2.535474 -1.970389
v -0.199513 2.531861 -1.892744
v -0.222186 2.528387 -1.818083
v -0.259004 2.525185 -1.749275
v -0.308554 2.522379 -1.688964
v -0.368930 2.520076 -1.639469
v -0.437812 2.518365 -1.602690
v -0.512554 2.517311 -1.580042
v -0.590283 2.516955 -1.572395
v -0.668012 2.517311 -1.580042
v -0.742754 2.518365 -1.602690
v -0.811636 2.520076 -1.639469
v -0.872012 2.522379 -1.688965
v -0.921561 2.525185 -1.749276
v -0.958380 2.528387 -1.818084
v -0.981052 2.531861 -1.892745
v -0.944757 2.499505 -2.042648
v -0.951701 2.496228 -1.972215
v -0.924190 2.502656 -2.110375
v -0.890791 2.505560 -2.172792
v -0.845844 2.508106 -2.227501
v -0.791076 2.510195 -2.272399
v -0.728592 2.511748 -2.305762
v -0.660792 2.512703 -2.326306
v -0.590283 2.513026 -2.333243
v -0.519773 2.512703 -2.326306
v -0.451974 2.511748 -2.305762
v -0.389489 2.510195 -2.272399
v -0.334721 2.508106 -2.227501
v -0.289774 2.505560 -2.172792
v -0.256375 2.502656 -2.110375
v -0.235808 2.499505 -2.042648
v -0.228864 2.496228 -1.972215
v -0.235809 2.492951 -1.901782
v -0.256375 2.489799 -1.834056
v -0.289774 2.486895 -1.771639
v -0.334721 2.484349 -1.716930
v -0.389489 2.482260 -1.672031
v -0.451974 2.480708 -1.638669
v -0.519774 2.479752 -1.618124
v -0.590283 2.479429 -1.611187
v -0.660792 2.479752 -1.618124
v -0.728592 2.480708 -1.638669
v -0.791077 2.482260 -1.672032
v -0.845845 2.484349 -1.716930
v -0.890792 2.486895 -1.771639
v -0.924190 2.489799 -1.834056
v -0.944757 2.492951 -1.901783
vn -1.0000 -0.0000 -0.0000
vn -0.8051 0.5925 0.0276
vn -0.9808 0.0091 -0.1949
vn -0.7896 0.5998 -0.1293
vn -0.9239 0.0178 -0.3823
vn -0.7438 0.6068 -0.2802
vn -0.8315 0.0258 -0.5550
vn -0.6694 0.6133 -0.4192
vn -0.7071 0.0329 -0.7063
vn -0.5693 0.6190 -0.5411
vn -0.5556 0.0386 -0.8306
vn -0.4473 0.6236 -0.6411
vn -0.3827 0.0429 -0.9229
vn -0.3081 0.6271 -0.7154
vn -0.1951 0.0456 -0.9797
vn -0.1571 0.6292 -0.7612
vn -0.0000 0.0465 -0.9989
vn -0.0000 0.6299 -0.7766
vn 0.1951 0.0456 -0.9797
vn 0.1571 0.6292 -0.7612
vn 0.3827 0.0429 -0.9229
vn 0.3081 0.6271 -0.7154
vn 0.5556 0.0386 -0.8306
vn 0.4473 0.6236 -0.6411
vn 0.7071 0.0329 -0.7063
vn 0.5693 0.6190 -0.5411
vn 0.8315 0.0258 -0.5550
vn 0.6694 0.6133 -0.4192
vn 0.9239 0.0178 -0.3823
vn 0.7438 0.6068 -0.2802
vn 0.9808 0.0091 -0.1949
vn 0.7896 0.5998 -0.1293
vn 1.0000 -0.0000 -0.0000
vn 0.8051 0.5925 0.0276
vn 0.9808 -0.0091 0.1949
vn 0.7896 0.5852 0.1845
vn 0.9239 -0.0178 0.3823
vn 0.7438 0.5782 0.3353
vn 0.8315 -0.0258 0.5550
vn 0.6694 0.5717 0.4744
vn 0.7071 -0.0329 0.7063
vn 0.5693 0.5661 0.5962
vn 0.5556 -0.0386 0.8306
vn 0.4473 0.5614 0.6962
vn 0.3827 -0.0429 0.9229
vn 0.3081 0.5580 0.7706
vn 0.1951 -0.0456 0.9797
vn 0.1571 0.5558 0.8163
vn -0.0000 -0.0465 0.9989
vn -0.0000 0.5551 0.8318
vn -0.1951 -0.0456 0.9797
vn -0.1571 0.5558 0.8163
vn -0.3827 -0.0429 0.9229
vn -0.3081 0.5580 0.7706
vn -0.5556 -0.0386 0.8306
vn -0.4473 0.5614 0.6962
vn -0.7071 -0.0329 0.7063
vn -0.5693 0.5661 0.5962
vn -0.8315 -0.0258 0.5550
vn -0.6694 0.5717 0.4744
vn -0.9239 -0.0178 0.3823
vn -0.7438 0.5782 0.3353
vn -0.9808 -0.0091 0.1949
vn -0.7896 0.5852 0.1845
vn 0.2412 0.9660 0.0930
vn 0.2460 0.9682 0.0451
vn 0.2272 0.9639 0.1391
vn 0.2045 0.9619 0.1815
vn 0.1739 0.9601 0.2188
vn 0.1366 0.9587 0.2493
vn 0.0941 0.9577 0.2720
vn 0.0480 0.9570 0.2860
vn -0.0000 0.9568 0.2907
vn -0.0480 0.9570 0.2860
vn -0.0941 0.9577 0.2720
vn -0.1366 0.9587 0.2493
vn -0.1739 0.9601 0.2188
vn -0.2045 0.9619 0.1815
vn -0.2272 0.9639 0.1391
vn -0.2412 0.9660 0.0930
vn -0.2460 0.9682 0.0451
vn -0.2412 0.9705 -0.0029
vn -0.2272 0.9726 -0.0490
vn -0.2045 0.9746 -0.0914
vn -0.1739 0.9763 -0.1287
vn -0.1366 0.9777 -0.1592
vn -0.0941 0.9788 -0.1819
vn -0.0480 0.9794 -0.1959
vn -0.0000 0.9797 -0.2006
vn 0.0480 0.9794 -0.1959
vn 0.0941 0.9788 -0.1819
vn 0.1366 0.9777 -0.1592
vn 0.1739 0.9763 -0.1287
vn 0.2045 0.9746 -0.0914
vn 0.2272 0.9726 -0.0490
vn 0.2412 0.9705 -0.0029
vn 0.4089 0.9042 0.1235
vn 0.4169 0.9080 0.0422
vn 0.3852 0.9005 0.2016
vn 0.3467 0.8972 0.2736
vn 0.2948 0.8943 0.3367
vn 0.2316 0.8919 0.3885
vn 0.1595 0.8901 0.4270
vn 0.0813 0.8890 0.4507
vn -0.0000 0.8886 0.4587
vn -0.0813 0.8890 0.4507
vn -0.1595 0.8901 0.4270
vn -0.2316 0.8919 0.3885
vn -0.2948 0.8943 0.3367
vn -0.3467 0.8972 0.2736
vn -0.3852 0.9005 0.2016
vn -0.4089 0.9042 0.1235
vn -0.4169 0.9080 0.0422
vn -0.4089 0.9117 -0.0390
vn -0.3852 0.9154 -0.1171
vn -0.3467 0.9187 -0.1891
vn -0.2948 0.9217 -0.2522
vn -0.2316 0.9241 -0.3040
vn -0.1595 0.9259 -0.3425
vn -0.0813 0.9270 -0.3662
vn -0.0000 0.9273 -0.3742
vn 0.0813 0.9270 -0.3662
vn 0.1595 0.9259 -0.3425
vn 0.2316 0.9241 -0.3040
vn 0.2948 0.9217 -0.2522
vn 0.3467 0.9187 -0.1891
vn 0.3852 0.9154 -0.1171
vn 0.4089 0.9117 -0.0390
s 1
usemtl Material.004
f 1//1 2//2 4//4 3//3
f 3//3 4//4 6//6 5//5
f 5//5 6//6 8//8 7//7
f 7//7 8//8 10//10 9//9
f 9//9 10//10 12//12 11//11
f 11//11 12//12 14//14 13//13
f 13//13 14//14 16//16 15//15
f 15//15 16//16 18//18 17//17
f 17//17 18//18 20//20 19//19
f 19//19 20//20 22//22 21//21
f 21//21 22//22 24//24 23//23
f 23//23 24//24 26//26 25//25
f 25//25 26//26 28//28 27//27
f 27//27 28//28 30//30 29//29
f 29//29 30//30 32//32 31//31
f 31//31 32//32 34//34 33//33
f 33//33 34//34 36//36 35//35
f 35//35 36//36 38//38 37//37
f 37//37 38//38 40//40 39//39
f 39//39 40//40 42//42 41//41
f 41//41 42//42 44//44 43//43
f 43//43 44//44 46//46 45//45
f 45//45 46//46 48//48 47//47
f 47//47 48//48 50//50 49//49
f 49//49 50//50 52//52 51//51
f 51//51 52//52 54//54 53//53
f 53//53 54//54 56//56 55//55
f 55//55 56//56 58//58 57//57
f 57//57 58//58 60//60 59//59
f 59//59 60//60 62//62 61//61
f 60//60 58//58 93//93 94//94
f 63//63 64//64 2//2 1//1
f 61//61 62//62 64//64 63//63
f 91//91 90//90 122//122 123//123
f 38//38 36//36 82//82 83//83
f 16//16 14//14 71//71 72//72
f 2//2 64//64 96//96 66//66
f 44//44 42//42 85//85 86//86
f 22//22 20//20 74//74 75//75
f 50//50 48//48 88//88 89//89
f 6//6 4//4 65//65 67//67
f 28//28 26//26 77//77 78//78
f 56//56 54//54 91//91 92//92
f 12//12 10//10 69//69 70//70
f 34//34 32//32 80//80 81//81
f 62//62 60//60 94//94 95//95
f 40//40 38//38 83//83 84//84
f 4//4 2//2 66//66 65//65
f 18//18 16//16 72//72 73//73
f 46//46 44//44 86//86 87//87
f 24//24 22//22 75//75 76//76
f 52//52 50//50 89//89 90//90
f 8//8 6//6 67//67 68//68
f 30//30 28//28 78//78 79//79
f 58//58 56//56 92//92 93//93
f 36//36 34//34 81//81 82//82
f 14//14 12//12 70//70 71//71
f 64//64 62//62 95//95 96//96
f 42//42 40//40 84//84 85//85
f 20//20 18//18 73//73 74//74
f 48//48 46//46 87//87 88//88
f 26//26 24//24 76//76 77//77
f 54//54 52//52 90//90 91//91
f 10//10 8//8 68//68 69//69
f 32//32 30//30 79//79 80//80
f 97//97 98//98 128//128 127//127 126//126 125//125 124//124 123//123 122//122 121//121 120//120 119//119 118//118 117//117 116//116 115//115 114//114 113//113 112//112 111//111 110//110 109//109 108//108 107//107 106//106 105//105 104//104 103//103 102//102 101//101 100//100 99//99
f 69//69 68//68 100//100 101//101
f 80//80 79//79 111//111 112//112
f 89//89 88//88 120//120 121//121
f 67//67 65//65 97//97 99//99
f 78//78 77//77 109//109 110//110
f 87//87 86//86 118//118 119//119
f 76//76 75//75 107//107 108//108
f 96//96 95//95 127//127 128//128
f 85//85 84//84 116//116 117//117
f 74//74 73//73 105//105 106//106
f 94//94 93//93 125//125 126//126
f 83//83 82//82 114//114 115//115
f 72//72 71//71 103//103 104//104
f 92//92 91//91 123//123 124//124
f 70//70 69//69 101//101 102//102
f 81//81 80//80 112//112 113//113
f 90//90 89//89 121//121 122//122
f 68//68 67//67 99//99 100//100
f 79//79 78//78 110//110 111//111
f 88//88 87//87 119//119 120//120
f 65//65 66//66 98//98 97//97
f 77//77 76//76 108//108 109//109
f 66//66 96//96 128//128 98//98
f 86//86 85//85 117//117 118//118
f 75//75 74//74 106//106 107//107
f 95//95 94//94 126//126 127//127
f 84//84 83//83 115//115 116//116
f 73//73 72//72 104//104 105//105
f 93//93 92//92 124//124 125//125
f 82//82 81//81 113//113 114//114
f 71//71 70//70 102//102 103//103
o topoTank
v 0.954937 0.789715 -0.412326
v 0.954937 2.205833 -0.412326
v -2.429366 0.789715 -0.412326
v -2.429366 2.205833 -0.412326
v 0.954937 0.789715 -2.534528
v 0.954937 2.388658 -2.534528
v -2.429366 0.789715 -2.534528
v -2.429366 2.388658 -2.534528
v 0.954937 1.149061 0.300061
v 0.954937 2.155399 0.300061
v -2.429366 1.149061 0.300061
v -2.429366 2.155399 0.300061
v -2.429366 0.918038 -2.534528
v 0.954937 0.918038 -2.534528
v 0.954937 2.530504 -3.979248
v -2.429366 2.530504 -3.979249
v -2.429366 1.212236 -3.979249
v 0.954937 1.212236 -3.979248
vn 0.2159 -0.9499 0.2260
vn 0.2461 0.9663 0.0758
vn -0.2159 -0.9499 0.2260
vn -0.2461 0.9663 0.0758
vn 0.1759 -0.6961 -0.6961
vn 0.2458 0.9652 0.0890
vn -0.1759 -0.6961 -0.6961
vn -0.2458 0.9652 0.0890
vn 0.1890 -0.5148 0.8362
vn 0.1776 0.6709 0.7200
vn -0.1890 -0.5148 0.8362
vn -0.1776 0.6709 0.7200
vn -0.4242 -0.5729 -0.7013
vn 0.4242 -0.5729 -0.7013
vn 0.1737 0.7296 -0.6615
vn -0.1737 0.7296 -0.6615
vn -0.1809 -0.6222 -0.7617
vn 0.1809 -0.6222 -0.7617
s 1
usemtl Material.001
f 131//131 129//129 137//137 139//139
f 132//132 136//136 141//141 135//135 131//131
f 141//141 142//142 133//133 135//135
f 134//134 130//130 129//129 133//133 142//142
f 129//129 131//131 135//135 133//133
f 134//134 136//136 132//132 130//130
f 138//138 140//140 139//139 137//137
f 132//132 131//131 139//139 140//140
f 130//130 132//132 140//140 138//138
f 129//129 130//130 138//138 137//137
f 142//142 141//141 145//145 146//146
f 144//144 143//143 146//146 145//145
f 134//134 142//142 146//146 143//143
f 141//141 136//136 144//144 145//145
f 136//136 134//134 143//143 144//144
